<svg width="42" height="42" viewBox="0 0 42 42" fill="none" xmlns="http://www.w3.org/2000/svg">
<g filter="url(#filter0_d_26791_198444)">
<circle cx="21" cy="19" r="14" transform="rotate(-180 21 19)" fill="white"/>
<circle cx="21" cy="19" r="13.5" transform="rotate(-180 21 19)" stroke="#364BB5"/>
</g>
<path d="M18.5001 11.7747C18.6584 11.7747 18.8168 11.8331 18.9418 11.9581L24.3751 17.3914C25.2584 18.2747 25.2584 19.7247 24.3751 20.6081L18.9418 26.0414C18.7001 26.2831 18.3001 26.2831 18.0584 26.0414C17.8168 25.7997 17.8168 25.3997 18.0584 25.1581L23.4918 19.7247C23.8918 19.3247 23.8918 18.6747 23.4918 18.2747L18.0584 12.8414C17.8168 12.5997 17.8168 12.1997 18.0584 11.9581C18.1834 11.8414 18.3418 11.7747 18.5001 11.7747Z" fill="#364BB5"/>
<defs>
<filter id="filter0_d_26791_198444" x="0" y="0" width="42" height="42" filterUnits="userSpaceOnUse" color-interpolation-filters="sRGB">
<feFlood flood-opacity="0" result="BackgroundImageFix"/>
<feColorMatrix in="SourceAlpha" type="matrix" values="0 0 0 0 0 0 0 0 0 0 0 0 0 0 0 0 0 0 127 0" result="hardAlpha"/>
<feMorphology radius="1" operator="dilate" in="SourceAlpha" result="effect1_dropShadow_26791_198444"/>
<feOffset dy="2"/>
<feGaussianBlur stdDeviation="3"/>
<feComposite in2="hardAlpha" operator="out"/>
<feColorMatrix type="matrix" values="0 0 0 0 0.619608 0 0 0 0 0.619608 0 0 0 0 0.619608 0 0 0 0.5 0"/>
<feBlend mode="normal" in2="BackgroundImageFix" result="effect1_dropShadow_26791_198444"/>
<feBlend mode="normal" in="SourceGraphic" in2="effect1_dropShadow_26791_198444" result="shape"/>
</filter>
</defs>
</svg>
