<svg width="42" height="42" viewBox="0 0 42 42" fill="none" xmlns="http://www.w3.org/2000/svg">
<g filter="url(#filter0_d_26780_197713)">
<circle cx="21" cy="19" r="14" fill="white"/>
<circle cx="21" cy="19" r="13.5" stroke="#364BB5"/>
</g>
<path d="M23.4999 26.2248C23.3416 26.2248 23.1832 26.1664 23.0582 26.0414L17.6249 20.6081C16.7416 19.7248 16.7416 18.2748 17.6249 17.3914L23.0582 11.9581C23.2999 11.7164 23.6999 11.7164 23.9416 11.9581C24.1832 12.1998 24.1832 12.5998 23.9416 12.8414L18.5082 18.2748C18.1082 18.6748 18.1082 19.3248 18.5082 19.7248L23.9416 25.1581C24.1832 25.3998 24.1832 25.7998 23.9416 26.0414C23.8166 26.1581 23.6582 26.2248 23.4999 26.2248Z" fill="#364BB5"/>
<defs>
<filter id="filter0_d_26780_197713" x="0" y="0" width="42" height="42" filterUnits="userSpaceOnUse" color-interpolation-filters="sRGB">
<feFlood flood-opacity="0" result="BackgroundImageFix"/>
<feColorMatrix in="SourceAlpha" type="matrix" values="0 0 0 0 0 0 0 0 0 0 0 0 0 0 0 0 0 0 127 0" result="hardAlpha"/>
<feMorphology radius="1" operator="dilate" in="SourceAlpha" result="effect1_dropShadow_26780_197713"/>
<feOffset dy="2"/>
<feGaussianBlur stdDeviation="3"/>
<feComposite in2="hardAlpha" operator="out"/>
<feColorMatrix type="matrix" values="0 0 0 0 0.619608 0 0 0 0 0.619608 0 0 0 0 0.619608 0 0 0 0.5 0"/>
<feBlend mode="normal" in2="BackgroundImageFix" result="effect1_dropShadow_26780_197713"/>
<feBlend mode="normal" in="SourceGraphic" in2="effect1_dropShadow_26780_197713" result="shape"/>
</filter>
</defs>
</svg>
